<?xml version="1.0" encoding="UTF-8" standalone="no"?>
<!-- Created with Inkscape (http://www.inkscape.org/) -->

<svg
   xmlns:dc="http://purl.org/dc/elements/1.1/"
   xmlns:cc="http://creativecommons.org/ns#"
   xmlns:rdf="http://www.w3.org/1999/02/22-rdf-syntax-ns#"
   xmlns:svg="http://www.w3.org/2000/svg"
   xmlns="http://www.w3.org/2000/svg"
   xmlns:sodipodi="http://sodipodi.sourceforge.net/DTD/sodipodi-0.dtd"
   xmlns:inkscape="http://www.inkscape.org/namespaces/inkscape"
   width="707.14288"
   height="141.42424"
   id="svg2"
   version="1.1"
   inkscape:version="0.48.2 r9819"
   sodipodi:docname="logo-receita-digital.svg">
  <defs
     id="defs4">
    <clipPath
       id="clipPath3819"
       clipPathUnits="userSpaceOnUse">
      <path
         inkscape:connector-curvature="0"
         id="path3821"
         clip-rule="evenodd"
         d="m 40,20 200,0 0,39.999 -200,0 L 40,20 z" />
    </clipPath>
    <clipPath
       id="clipPath3827"
       clipPathUnits="userSpaceOnUse">
      <path
         inkscape:connector-curvature="0"
         id="path3829"
         d="M 0,0 200,0 200,40 0,40 0,0 z" />
    </clipPath>
  </defs>
  <sodipodi:namedview
     id="base"
     pagecolor="#ffffff"
     bordercolor="#666666"
     borderopacity="1.0"
     inkscape:pageopacity="0.0"
     inkscape:pageshadow="2"
     inkscape:zoom="0.7"
     inkscape:cx="227.07049"
     inkscape:cy="-12.232409"
     inkscape:document-units="px"
     inkscape:current-layer="layer1"
     showgrid="false"
     inkscape:window-width="1920"
     inkscape:window-height="1027"
     inkscape:window-x="-8"
     inkscape:window-y="-8"
     inkscape:window-maximized="1"
     fit-margin-top="0"
     fit-margin-left="0"
     fit-margin-right="0"
     fit-margin-bottom="0" />
  <metadata
     id="metadata7">
    <rdf:RDF>
      <cc:Work
         rdf:about="">
        <dc:format>image/svg+xml</dc:format>
        <dc:type
           rdf:resource="http://purl.org/dc/dcmitype/StillImage" />
        <dc:title></dc:title>
      </cc:Work>
    </rdf:RDF>
  </metadata>
  <g
     inkscape:label="Camada 1"
     inkscape:groupmode="layer"
     id="layer1"
     transform="translate(-15.000002,-357.36434)">
    <g
       id="g3815"
       transform="matrix(3.5357143,0,0,3.5357143,-126.42857,286.64925)">
      <g
         id="g3817"
         clip-path="url(#clipPath3819)">
        <g
           id="g3823"
           transform="translate(40,20)">
          <g
             id="g3825" />
          <g
             id="g3831">
            <g
               clip-path="url(#clipPath3827)"
               id="g3833">
              <g
                 id="g3835">
                <g
                   transform="translate(53.772239,19.262207)"
                   id="g3837">
                  <path
                     inkscape:connector-curvature="0"
                     d="M 0,0 1.821,0 C 2.746,0 3.453,-0.194 3.94,-0.584 4.427,-0.973 4.67,-1.549 4.67,-2.312 4.67,-3.074 4.427,-3.606 3.94,-3.909 3.453,-4.21 2.746,-4.361 1.821,-4.361 L 0,-4.361 0,0 z m -3.521,8.389 0,-15.539 5.629,0 c 0.83,0 1.609,0.08 2.335,0.238 0.727,0.16 1.361,0.426 1.905,0.799 0.541,0.373 0.974,0.87 1.293,1.489 0.319,0.62 0.479,1.391 0.479,2.312 0,1.144 -0.252,2.085 -0.754,2.824 C 6.862,1.251 6.188,1.803 5.342,2.169 l 3.544,6.22 -3.951,0 -2.994,-5.6 -1.941,0 0,5.6 -3.521,0 z"
                     style="fill:#0f7c6c;fill-opacity:1;fill-rule:nonzero;stroke:none"
                     id="path3839" />
                </g>
                <g
                   transform="translate(67.089898,20.454102)"
                   id="g3841">
                  <path
                     inkscape:connector-curvature="0"
                     d="m 0,0 4.287,0 c 0,-0.667 -0.151,-1.208 -0.455,-1.621 -0.303,-0.413 -0.814,-0.62 -1.533,-0.62 -0.559,0 -1.05,0.183 -1.473,0.549 C 0.403,-1.327 0.128,-0.763 0,0 M 2.635,7.483 C 1.788,7.483 0.998,7.344 0.263,7.066 -0.471,6.788 -1.11,6.383 -1.653,5.851 -2.196,5.318 -2.619,4.671 -2.923,3.908 -3.225,3.146 -3.377,2.272 -3.377,1.287 c 0,-0.954 0.159,-1.815 0.479,-2.586 0.319,-0.771 0.738,-1.422 1.257,-1.954 0.518,-0.533 1.114,-0.942 1.785,-1.228 0.67,-0.286 1.365,-0.429 2.083,-0.429 0.846,0 1.585,0.143 2.216,0.429 0.63,0.286 1.158,0.684 1.581,1.192 0.423,0.509 0.739,1.108 0.946,1.799 0.208,0.691 0.311,1.442 0.311,2.252 0,0.318 -0.016,0.62 -0.048,0.906 -0.031,0.286 -0.063,0.5 -0.095,0.644 l -7.114,0 c 0.16,0.857 0.515,1.489 1.065,1.894 0.551,0.405 1.227,0.608 2.025,0.608 0.846,0 1.701,-0.262 2.562,-0.787 L 6.85,6.148 C 6.243,6.562 5.569,6.887 4.826,7.126 4.083,7.364 3.353,7.483 2.635,7.483"
                     style="fill:#0f7c6c;fill-opacity:1;fill-rule:nonzero;stroke:none"
                     id="path3843" />
                </g>
                <g
                   transform="translate(81.98804,27.9375)"
                   id="g3845">
                  <path
                     inkscape:connector-curvature="0"
                     d="m 0,0 c -0.831,0 -1.601,-0.14 -2.312,-0.417 -0.71,-0.278 -1.329,-0.68 -1.856,-1.204 -0.526,-0.524 -0.943,-1.171 -1.245,-1.942 -0.304,-0.771 -0.455,-1.648 -0.455,-2.634 0,-0.985 0.167,-1.863 0.502,-2.633 0.336,-0.771 0.787,-1.418 1.354,-1.942 0.567,-0.525 1.225,-0.926 1.976,-1.204 0.751,-0.278 1.533,-0.417 2.348,-0.417 0.733,0 1.384,0.119 1.951,0.357 0.567,0.239 1.074,0.54 1.522,0.906 l -1.653,2.264 c -0.56,-0.461 -1.095,-0.691 -1.605,-0.691 -0.863,0 -1.541,0.302 -2.036,0.906 -0.495,0.604 -0.742,1.422 -0.742,2.454 0,1.033 0.251,1.851 0.754,2.455 0.503,0.604 1.138,0.906 1.904,0.906 0.383,0 0.755,-0.083 1.114,-0.25 0.359,-0.167 0.698,-0.37 1.018,-0.608 l 1.389,2.288 C 3.337,-0.897 2.698,-0.536 2.012,-0.322 1.325,-0.107 0.654,0 0,0"
                     style="fill:#0f7c6c;fill-opacity:1;fill-rule:nonzero;stroke:none"
                     id="path3847" />
                </g>
                <g
                   transform="translate(90.011773,20.454102)"
                   id="g3849">
                  <path
                     inkscape:connector-curvature="0"
                     d="m 0,0 4.287,0 c 0,-0.667 -0.151,-1.208 -0.455,-1.621 -0.302,-0.413 -0.814,-0.62 -1.533,-0.62 -0.558,0 -1.05,0.183 -1.472,0.549 C 0.403,-1.327 0.128,-0.763 0,0 M 2.635,7.483 C 1.789,7.483 0.998,7.344 0.263,7.066 -0.471,6.788 -1.11,6.383 -1.652,5.851 -2.196,5.318 -2.618,4.671 -2.922,3.908 -3.225,3.146 -3.377,2.272 -3.377,1.287 c 0,-0.954 0.159,-1.815 0.48,-2.586 0.318,-0.771 0.737,-1.422 1.257,-1.954 0.518,-0.533 1.113,-0.942 1.784,-1.228 0.671,-0.286 1.366,-0.429 2.084,-0.429 0.846,0 1.584,0.143 2.215,0.429 0.631,0.286 1.158,0.684 1.581,1.192 0.423,0.509 0.739,1.108 0.947,1.799 0.207,0.691 0.311,1.442 0.311,2.252 0,0.318 -0.017,0.62 -0.048,0.906 -0.032,0.286 -0.064,0.5 -0.095,0.644 l -7.115,0 c 0.16,0.857 0.516,1.489 1.066,1.894 0.551,0.405 1.226,0.608 2.025,0.608 0.845,0 1.7,-0.262 2.561,-0.787 L 6.85,6.148 C 6.243,6.562 5.57,6.887 4.827,7.126 4.084,7.364 3.354,7.483 2.635,7.483"
                     style="fill:#0f7c6c;fill-opacity:1;fill-rule:nonzero;stroke:none"
                     id="path3851" />
                </g>
                <g
                   transform="translate(99.735714,15.83)"
                   id="g3853">
                  <path
                     inkscape:connector-curvature="0"
                     d="m 0,0 3.522,0 0,11.821 L 0,11.821 0,0 z m 1.75,-1.74 c -0.591,0 -1.079,-0.17 -1.463,-0.512 -0.382,-0.341 -0.573,-0.782 -0.573,-1.323 0,-0.54 0.191,-0.977 0.573,-1.311 0.384,-0.333 0.872,-0.5 1.463,-0.5 0.606,0 1.097,0.167 1.472,0.5 0.375,0.334 0.563,0.771 0.563,1.311 0,0.541 -0.188,0.982 -0.563,1.323 C 2.847,-1.91 2.356,-1.74 1.75,-1.74"
                     style="fill:#0f7c6c;fill-opacity:1;fill-rule:nonzero;stroke:none"
                     id="path3855" />
                </g>
                <g
                   transform="translate(110.92191,27.9375)"
                   id="g3857">
                  <path
                     inkscape:connector-curvature="0"
                     d="M 0,0 C -0.735,0 -1.362,-0.112 -1.88,-0.334 -2.4,-0.556 -2.823,-0.866 -3.15,-1.263 -3.477,-1.66 -3.718,-2.141 -3.868,-2.706 -4.02,-3.269 -4.096,-3.893 -4.096,-4.576 l 0,-4.79 -1.629,0 0,-2.598 1.82,-0.143 0.408,-3.146 2.922,0 0,3.146 2.85,0 0,2.741 -2.85,0 0,4.742 c 0,0.667 0.139,1.148 0.419,1.442 0.28,0.294 0.65,0.441 1.114,0.441 0.192,0 0.387,-0.024 0.587,-0.072 0.199,-0.047 0.379,-0.103 0.538,-0.166 l 0.551,2.55 C 2.315,-0.334 1.94,-0.239 1.509,-0.144 1.077,-0.048 0.574,0 0,0"
                     style="fill:#0f7c6c;fill-opacity:1;fill-rule:nonzero;stroke:none"
                     id="path3859" />
                </g>
                <g
                   transform="translate(119.23293,25.220215)"
                   id="g3861">
                  <path
                     inkscape:connector-curvature="0"
                     d="m 0,0 c 0.399,0 0.743,-0.087 1.03,-0.262 0.288,-0.175 0.591,-0.421 0.911,-0.739 l 0,-2.073 c -1.247,0.175 -2.109,0.428 -2.587,0.762 -0.48,0.334 -0.719,0.731 -0.719,1.192 0,0.381 0.124,0.663 0.371,0.846 C -0.747,-0.091 -0.415,0 0,0 M -1.197,2.717 C -1.74,2.717 -2.231,2.625 -2.67,2.443 -3.11,2.261 -3.48,2.006 -3.784,1.68 -4.087,1.355 -4.324,0.977 -4.49,0.548 -4.658,0.119 -4.743,-0.349 -4.743,-0.858 c 0,-1.239 0.528,-2.208 1.581,-2.908 1.054,-0.698 2.755,-1.167 5.103,-1.405 C 1.909,-5.696 1.753,-6.113 1.473,-6.423 1.194,-6.732 0.727,-6.888 0.072,-6.888 c -0.511,0 -1.018,0.096 -1.52,0.286 -0.504,0.191 -1.042,0.453 -1.617,0.787 l -1.27,-2.312 c 0.766,-0.46 1.569,-0.834 2.407,-1.12 0.839,-0.286 1.729,-0.429 2.671,-0.429 1.533,0 2.702,0.433 3.508,1.299 0.807,0.866 1.21,2.212 1.21,4.04 l 0,6.768 -2.874,0 -0.239,-1.215 -0.096,0 C 1.741,1.661 1.206,2.022 0.647,2.3 0.087,2.578 -0.527,2.717 -1.197,2.717"
                     style="fill:#0f7c6c;fill-opacity:1;fill-rule:nonzero;stroke:none"
                     id="path3863" />
                </g>
                <g
                   transform="translate(136.2632,24.814697)"
                   id="g3865">
                  <path
                     inkscape:connector-curvature="0"
                     d="M 0,0 0.67,0 C 1.341,0 1.948,-0.087 2.491,-0.262 3.034,-0.437 3.496,-0.719 3.88,-1.108 4.263,-1.497 4.563,-2.01 4.779,-2.645 4.994,-3.281 5.102,-4.067 5.102,-5.005 5.102,-5.926 4.994,-6.7 4.779,-7.329 4.563,-7.956 4.263,-8.456 3.88,-8.83 3.496,-9.203 3.034,-9.469 2.491,-9.628 1.948,-9.787 1.341,-9.867 0.67,-9.867 L 0,-9.867 0,0 z m -3.521,2.836 0,-15.539 4.407,0 c 1.197,0 2.276,0.152 3.234,0.453 0.957,0.302 1.781,0.767 2.467,1.395 0.686,0.627 1.213,1.426 1.581,2.395 0.367,0.969 0.551,2.121 0.551,3.455 0,1.335 -0.184,2.495 -0.551,3.48 C 7.8,-0.54 7.281,0.274 6.611,0.918 5.941,1.561 5.138,2.042 4.204,2.359 3.269,2.678 2.227,2.836 1.078,2.836 l -4.599,0 z"
                     style="fill:#0f7c6c;fill-opacity:1;fill-rule:nonzero;stroke:none"
                     id="path3867" />
                </g>
                <g
                   transform="translate(147.66422,15.83)"
                   id="g3869">
                  <path
                     inkscape:connector-curvature="0"
                     d="m 0,0 3.521,0 0,11.821 L 0,11.821 0,0 z m 1.749,-1.74 c -0.591,0 -1.078,-0.17 -1.462,-0.512 -0.382,-0.341 -0.574,-0.782 -0.574,-1.323 0,-0.54 0.192,-0.977 0.574,-1.311 0.384,-0.333 0.871,-0.5 1.462,-0.5 0.607,0 1.097,0.167 1.473,0.5 0.375,0.334 0.563,0.771 0.563,1.311 0,0.541 -0.188,0.982 -0.563,1.323 C 2.846,-1.91 2.356,-1.74 1.749,-1.74"
                     style="fill:#0f7c6c;fill-opacity:1;fill-rule:nonzero;stroke:none"
                     id="path3871" />
                </g>
                <g
                   transform="translate(158.7784,21.788574)"
                   id="g3873">
                  <path
                     inkscape:connector-curvature="0"
                     d="M 0,0 C 0.462,0 0.85,-0.163 1.162,-0.489 1.473,-0.814 1.629,-1.311 1.629,-1.979 1.629,-2.598 1.473,-3.07 1.162,-3.396 0.85,-3.722 0.462,-3.885 0,-3.885 c -0.463,0 -0.85,0.159 -1.162,0.477 -0.311,0.318 -0.467,0.795 -0.467,1.429 0,0.668 0.156,1.165 0.467,1.49 C -0.85,-0.163 -0.463,0 0,0 M 0.287,8.699 C 1.086,8.699 1.74,8.56 2.251,8.282 2.763,8.003 3.018,7.658 3.018,7.245 3.018,6.879 2.862,6.633 2.551,6.506 2.239,6.379 1.788,6.315 1.197,6.315 l -1.221,0 C -0.439,6.315 -0.775,6.304 -1.03,6.28 -1.285,6.256 -1.509,6.22 -1.701,6.172 -2.132,6.554 -2.348,6.943 -2.348,7.34 c 0,0.445 0.24,0.783 0.719,1.013 0.479,0.23 1.117,0.346 1.916,0.346 m -0.55,2.193 c -0.703,0 -1.354,-0.06 -1.953,-0.179 -0.598,-0.12 -1.126,-0.298 -1.58,-0.536 C -4.251,9.938 -4.607,9.628 -4.862,9.247 -5.118,8.866 -5.245,8.413 -5.245,7.889 c 0,-0.954 0.567,-1.748 1.7,-2.384 l 0,-0.095 C -3.864,5.204 -4.128,4.941 -4.335,4.624 -4.544,4.306 -4.647,3.901 -4.647,3.408 c 0,-0.429 0.127,-0.838 0.384,-1.227 0.255,-0.389 0.575,-0.719 0.957,-0.99 l 0,-0.095 C -3.721,0.81 -4.092,0.401 -4.419,-0.131 c -0.328,-0.533 -0.492,-1.148 -0.492,-1.848 0,-0.714 0.136,-1.337 0.408,-1.87 0.272,-0.532 0.635,-0.977 1.09,-1.335 0.455,-0.357 0.978,-0.623 1.569,-0.798 0.59,-0.175 1.205,-0.262 1.844,-0.262 0.703,0 1.318,0.095 1.844,0.286 l 4.336,0 0,2.55 -1.893,0 c 0.112,0.175 0.204,0.397 0.276,0.667 0.071,0.27 0.107,0.564 0.107,0.882 0,0.683 -0.119,1.275 -0.358,1.776 C 4.072,0.417 3.741,0.83 3.318,1.156 2.893,1.481 2.399,1.724 1.832,1.883 1.265,2.042 0.654,2.121 0,2.121 c -0.463,0 -0.942,-0.079 -1.437,-0.238 -0.16,0.127 -0.272,0.254 -0.336,0.381 -0.063,0.127 -0.095,0.294 -0.095,0.501 0,0.301 0.131,0.524 0.395,0.667 0.263,0.143 0.73,0.214 1.402,0.214 l 1.915,0 c 1.47,0 2.591,0.235 3.366,0.703 0.774,0.469 1.161,1.236 1.161,2.3 0,0.62 -0.155,1.188 -0.466,1.704 C 5.593,8.87 5.15,9.314 4.575,9.688 4,10.061 3.306,10.355 2.491,10.569 1.676,10.784 0.758,10.892 -0.263,10.892"
                     style="fill:#0f7c6c;fill-opacity:1;fill-rule:nonzero;stroke:none"
                     id="path3875" />
                </g>
                <g
                   transform="translate(167.06538,15.83)"
                   id="g3877">
                  <path
                     inkscape:connector-curvature="0"
                     d="m 0,0 3.521,0 0,11.821 L 0,11.821 0,0 z m 1.749,-1.74 c -0.591,0 -1.079,-0.17 -1.461,-0.512 -0.383,-0.341 -0.575,-0.782 -0.575,-1.323 0,-0.54 0.192,-0.977 0.575,-1.311 0.382,-0.333 0.87,-0.5 1.461,-0.5 0.607,0 1.097,0.167 1.473,0.5 0.375,0.334 0.563,0.771 0.563,1.311 0,0.541 -0.188,0.982 -0.563,1.323 C 2.846,-1.91 2.356,-1.74 1.749,-1.74"
                     style="fill:#0f7c6c;fill-opacity:1;fill-rule:nonzero;stroke:none"
                     id="path3879" />
                </g>
                <g
                   transform="translate(178.25174,27.9375)"
                   id="g3881">
                  <path
                     inkscape:connector-curvature="0"
                     d="M 0,0 C -0.735,0 -1.362,-0.112 -1.88,-0.334 -2.4,-0.556 -2.823,-0.866 -3.15,-1.263 -3.477,-1.66 -3.718,-2.141 -3.868,-2.706 -4.02,-3.269 -4.096,-3.893 -4.096,-4.576 l 0,-4.79 -1.629,0 0,-2.598 1.82,-0.143 0.408,-3.146 2.922,0 0,3.146 2.85,0 0,2.741 -2.85,0 0,4.742 c 0,0.667 0.139,1.148 0.419,1.442 0.28,0.294 0.65,0.441 1.114,0.441 0.192,0 0.387,-0.024 0.587,-0.072 0.199,-0.047 0.379,-0.103 0.538,-0.166 l 0.551,2.55 C 2.315,-0.334 1.94,-0.239 1.509,-0.144 1.077,-0.048 0.575,0 0,0"
                     style="fill:#0f7c6c;fill-opacity:1;fill-rule:nonzero;stroke:none"
                     id="path3883" />
                </g>
                <g
                   transform="translate(186.56276,25.220215)"
                   id="g3885">
                  <path
                     inkscape:connector-curvature="0"
                     d="m 0,0 c 0.399,0 0.743,-0.087 1.03,-0.262 0.288,-0.175 0.591,-0.421 0.911,-0.739 l 0,-2.073 c -1.247,0.175 -2.109,0.428 -2.588,0.762 -0.479,0.334 -0.718,0.731 -0.718,1.192 0,0.381 0.124,0.663 0.371,0.846 C -0.747,-0.091 -0.415,0 0,0 M -1.197,2.717 C -1.741,2.717 -2.231,2.625 -2.67,2.443 -3.111,2.261 -3.481,2.006 -3.784,1.68 -4.087,1.355 -4.324,0.977 -4.49,0.548 -4.658,0.119 -4.743,-0.349 -4.743,-0.858 c 0,-1.239 0.528,-2.208 1.581,-2.908 1.054,-0.698 2.755,-1.167 5.103,-1.405 C 1.908,-5.696 1.753,-6.113 1.473,-6.423 1.193,-6.732 0.727,-6.888 0.072,-6.888 c -0.511,0 -1.018,0.096 -1.521,0.286 -0.503,0.191 -1.042,0.453 -1.616,0.787 l -1.27,-2.312 c 0.766,-0.46 1.568,-0.834 2.407,-1.12 0.839,-0.286 1.728,-0.429 2.671,-0.429 1.532,0 2.702,0.433 3.508,1.299 0.807,0.866 1.21,2.212 1.21,4.04 l 0,6.768 -2.874,0 -0.24,-1.215 -0.096,0 C 1.74,1.661 1.206,2.022 0.647,2.3 0.087,2.578 -0.527,2.717 -1.197,2.717"
                     style="fill:#0f7c6c;fill-opacity:1;fill-rule:nonzero;stroke:none"
                     id="path3887" />
                </g>
                <g
                   transform="translate(198.22763,27.9375)"
                   id="g3889">
                  <path
                     inkscape:connector-curvature="0"
                     d="m 0,0 c -0.607,0 -1.118,-0.096 -1.533,-0.286 -0.415,-0.191 -0.746,-0.457 -0.994,-0.798 -0.248,-0.342 -0.427,-0.755 -0.538,-1.24 -0.113,-0.485 -0.168,-1.029 -0.168,-1.633 l 0,-13.036 3.52,0 0,13.18 c 0,0.365 0.069,0.619 0.204,0.762 0.136,0.143 0.276,0.215 0.42,0.215 l 0.203,0 c 0.056,0 0.131,-0.016 0.228,-0.048 l 0.431,2.598 C 1.581,-0.207 1.338,-0.14 1.042,-0.083 0.747,-0.028 0.399,0 0,0"
                     style="fill:#0f7c6c;fill-opacity:1;fill-rule:nonzero;stroke:none"
                     id="path3891" />
                </g>
                <g
                   transform="translate(20.725424,20.121582)"
                   id="g3893">
                  <path
                     inkscape:connector-curvature="0"
                     d="m 0,0 -0.694,0 c -0.009,-0.017 -0.004,-0.031 0.012,-0.041 0.223,-0.038 0.446,-0.039 0.67,0 C 0.003,-0.031 0.007,-0.017 0,0"
                     style="fill:#4bb7a6;fill-opacity:1;fill-rule:nonzero;stroke:none"
                     id="path3895" />
                </g>
                <g
                   transform="translate(38.906794,18.045898)"
                   id="g3897">
                  <path
                     inkscape:connector-curvature="0"
                     d="M 0,0 0,0.587 C -0.017,0.594 -0.029,0.59 -0.039,0.575 -0.076,0.387 -0.076,0.2 -0.039,0.012 -0.029,-0.003 -0.017,-0.007 0,0"
                     style="fill:#57bbac;fill-opacity:1;fill-rule:nonzero;stroke:none"
                     id="path3899" />
                </g>
                <g
                   transform="translate(38.885942,18.634277)"
                   id="g3901">
                  <path
                     inkscape:connector-curvature="0"
                     d="m 0,0 c 0.007,0 0.014,-0.001 0.021,-0.001 l 0,0.244 C 0.005,0.25 -0.007,0.247 -0.017,0.232 -0.043,0.153 -0.06,0.073 0,0"
                     style="fill:#7eccbe;fill-opacity:1;fill-rule:nonzero;stroke:none"
                     id="path3903" />
                </g>
                <g
                   transform="translate(38.907038,18.045898)"
                   id="g3905">
                  <path
                     inkscape:connector-curvature="0"
                     d="M 0,0 C -0.007,0 -0.014,-0.001 -0.021,-0.001 -0.081,-0.075 -0.064,-0.154 -0.038,-0.234 -0.029,-0.248 -0.016,-0.251 0,-0.244 L 0,0 z"
                     style="fill:#79c8bb;fill-opacity:1;fill-rule:nonzero;stroke:none"
                     id="path3907" />
                </g>
                <g
                   transform="translate(20.725342,20.121582)"
                   id="g3909">
                  <path
                     inkscape:connector-curvature="0"
                     d="M 0,0 C 0,-0.007 0.001,-0.015 0.002,-0.022 0.07,-0.08 0.146,-0.068 0.221,-0.04 0.236,-0.029 0.239,-0.016 0.231,0 L 0,0 z"
                     style="fill:#83cdc1;fill-opacity:1;fill-rule:nonzero;stroke:none"
                     id="path3911" />
                </g>
                <g
                   transform="translate(38.885942,18.878906)"
                   id="g3913">
                  <path
                     inkscape:connector-curvature="0"
                     d="m 0,0 c 0.007,0 0.014,0 0.021,-0.002 l 0,0.196 L 0.01,0.195 0,0.195 C -0.053,0.13 -0.053,0.065 0,0"
                     style="fill:#c5e7e0;fill-opacity:1;fill-rule:nonzero;stroke:none"
                     id="path3915" />
                </g>
                <g
                   transform="translate(38.907038,17.802002)"
                   id="g3917">
                  <path
                     inkscape:connector-curvature="0"
                     d="m 0,0 c -0.007,-0.001 -0.014,-0.002 -0.021,-0.002 -0.053,-0.065 -0.053,-0.13 0,-0.195 0.007,-0.001 0.014,-0.001 0.021,0.001 L 0,0 z"
                     style="fill:#bae2dd;fill-opacity:1;fill-rule:nonzero;stroke:none"
                     id="path3919" />
                </g>
                <g
                   transform="translate(20.956787,20.121582)"
                   id="g3921">
                  <path
                     inkscape:connector-curvature="0"
                     d="m 0,0 c 0,-0.007 0.001,-0.014 0.001,-0.021 0.06,-0.053 0.121,-0.053 0.18,0 0,0.007 0,0.014 -0.001,0.021 L 0,0 z"
                     style="fill:#bee3df;fill-opacity:1;fill-rule:nonzero;stroke:none"
                     id="path3923" />
                </g>
                <g
                   transform="translate(19.392898,39.999512)"
                   id="g3925">
                  <path
                     inkscape:connector-curvature="0"
                     d="m 0,0 -0.128,0 c -1.924,-0.086 -3.802,-0.429 -5.625,-1.051 -6.424,-2.189 -11.318,-7.448 -13.022,-13.994 -0.353,-1.359 -0.561,-2.74 -0.606,-4.142 -0.168,-5.176 1.414,-9.763 4.766,-13.715 2.858,-3.37 6.477,-5.555 10.792,-6.579 1.622,-0.385 3.27,-0.557 4.936,-0.511 4.91,0.135 9.223,1.812 12.904,5.044 2.999,2.632 5.023,5.887 6.092,9.725 0.367,1.319 0.587,2.662 0.665,4.029 0.008,0.15 0.017,0.298 0.025,0.447 l 0,0.205 0,0.256 c 0,0.206 0,0.412 -0.001,0.618 0.001,0.085 0.001,0.171 0.001,0.256 l 0,0.204 c -0.106,2.515 -0.659,4.927 -1.678,7.23 C 16.597,-6.271 11.532,-2.038 5.447,-0.55 4.149,-0.232 2.831,-0.053 1.495,0 L 1.316,0 1.084,0 0.386,0 0.18,0 0,0"
                     style="fill:#0f7c6c;fill-opacity:1;fill-rule:nonzero;stroke:none"
                     id="path3927" />
                </g>
                <g
                   transform="translate(20.093608,34.568848)"
                   id="g3929">
                  <path
                     inkscape:connector-curvature="0"
                     d="m 0,0 c -8.048,-0.003 -14.631,-6.558 -14.627,-14.566 0.003,-8.013 6.597,-14.563 14.65,-14.554 8.047,0.009 14.626,6.571 14.616,14.578 C 14.63,-6.542 8.04,0.004 0,0"
                     style="fill:#fcfcfc;fill-opacity:1;fill-rule:nonzero;stroke:none"
                     id="path3931" />
                </g>
                <g
                   transform="translate(23.918248,22.277344)"
                   id="g3933">
                  <path
                     inkscape:connector-curvature="0"
                     d="m 0,0 c -0.87,-0.026 -1.741,-0.003 -2.611,-0.008 -0.262,-0.002 -0.524,0.002 -0.785,-10e-4 -0.081,-0.002 -0.119,0.014 -0.129,0.108 -0.131,1.087 -0.268,2.174 -0.402,3.262 -0.124,1.007 -0.246,2.014 -0.369,3.021 -0.036,0.284 -0.072,0.567 -0.104,0.851 -0.008,0.07 -0.036,0.09 -0.106,0.09 -1.179,-0.002 -2.359,-0.002 -3.538,0 -0.07,0 -0.088,-0.018 -0.08,-0.086 0.107,-0.842 0.211,-1.684 0.316,-2.526 0.1,-0.799 0.199,-1.599 0.298,-2.399 0.091,-0.728 0.179,-1.456 0.275,-2.183 0.014,-0.107 -0.002,-0.136 -0.116,-0.136 -1.754,0.005 -3.508,0.005 -5.262,0.006 l -0.194,0 c 0.071,-0.328 0.14,-0.646 0.209,-0.964 0.222,-1.011 0.446,-2.022 0.662,-3.034 0.025,-0.12 0.071,-0.151 0.191,-0.15 1.63,0.008 3.261,0.009 4.891,0.018 0.113,0 0.152,-0.033 0.166,-0.142 0.179,-1.486 0.362,-2.971 0.546,-4.456 0.126,-1.012 0.254,-2.023 0.378,-3.034 0.008,-0.066 0.02,-0.097 0.096,-0.097 1.197,0.004 2.394,0.005 3.59,0.006 0.047,0.055 0.036,0.12 0.028,0.183 -0.133,1.102 -0.275,2.202 -0.41,3.302 -0.102,0.819 -0.206,1.638 -0.309,2.456 -0.065,0.519 -0.12,1.04 -0.198,1.558 -0.006,0.037 -0.003,0.076 -0.005,0.114 -0.002,0.054 0.024,0.081 0.077,0.08 0.26,-0.007 0.522,0.024 0.781,-0.02 0.061,-0.011 0.12,-0.01 0.18,-0.01 l 2.706,0 c 0.063,0 0.129,-0.005 0.19,0.019 0.08,0.054 0.044,0.13 0.03,0.197 C 0.886,-3.479 0.776,-2.983 0.666,-2.488 0.499,-1.734 0.334,-0.98 0.168,-0.226 0.155,-0.167 0.144,-0.109 0.122,-0.053 0.098,0.002 0.061,0.028 0,0"
                     style="fill:#0f7c6c;fill-opacity:1;fill-rule:nonzero;stroke:none"
                     id="path3935" />
                </g>
                <g
                   transform="translate(21.783697,18.134766)"
                   id="g3937">
                  <path
                     inkscape:connector-curvature="0"
                     d="m 0,0 c -0.272,0.039 -0.546,0.009 -0.818,0.017 -0.051,10e-4 -0.072,-0.024 -0.064,-0.083 0.055,-0.416 0.108,-0.832 0.159,-1.248 0.048,-0.383 0.089,-0.767 0.136,-1.149 0.046,-0.374 0.099,-0.747 0.146,-1.121 0.039,-0.308 0.072,-0.615 0.11,-0.922 0.048,-0.383 0.098,-0.765 0.146,-1.148 0.038,-0.302 0.074,-0.605 0.112,-0.908 0.039,-0.319 0.08,-0.639 0.118,-0.959 0.008,-0.062 0.008,-0.127 0.011,-0.19 0.879,0.002 1.759,-0.042 2.636,0.028 0.944,0.076 1.837,0.329 2.629,0.867 1.085,0.736 1.728,1.754 1.916,3.048 0.161,1.106 0.042,2.188 -0.344,3.235 C 6.416,0.764 5.493,1.658 4.272,2.272 4.231,2.293 4.191,2.315 4.15,2.336 4.164,2.382 4.205,2.382 4.233,2.394 5.422,2.873 6.066,3.773 6.283,5.007 6.416,5.759 6.377,6.51 6.271,7.262 6.153,8.103 6.053,8.945 6.131,9.798 c 0.031,0.353 0.078,0.703 0.228,1.03 0.045,0.097 0.088,0.201 0.168,0.271 0.109,0.097 0.066,0.207 0.059,0.318 -0.003,0.038 -0.029,0.048 -0.062,0.047 l -0.091,0 c -1.179,0 -2.359,-0.001 -3.538,0.003 C 2.786,11.468 2.722,11.431 2.666,11.345 2.502,11.09 2.427,10.807 2.4,10.512 2.33,9.748 2.377,8.986 2.464,8.227 2.558,7.414 2.695,6.605 2.747,5.788 2.766,5.485 2.764,5.184 2.716,4.882 2.658,4.526 2.494,4.26 2.135,4.143 2.228,4.146 2.229,4.073 2.242,4.013 2.387,3.364 2.533,2.714 2.675,2.064 2.82,1.41 2.961,0.755 3.103,0.101 3.111,0.064 3.113,0.025 3.118,-0.012 3.111,-0.044 3.124,-0.072 3.141,-0.096 3.303,-0.312 3.373,-0.562 3.398,-0.824 3.447,-1.328 3.537,-1.83 3.517,-2.339 3.496,-2.846 3.367,-3.318 3.014,-3.704 2.664,-4.086 2.207,-4.23 1.708,-4.242 1.099,-4.257 0.49,-4.246 -0.119,-4.246 c -0.161,0.001 -0.169,0.006 -0.191,0.171 -0.088,0.707 -0.178,1.414 -0.265,2.12 -0.072,0.585 -0.145,1.169 -0.217,1.753 -0.017,0.143 -0.006,0.156 0.138,0.157 0.167,0.002 0.334,-0.001 0.501,0.002 C -0.099,-0.042 -0.039,-0.054 0,0"
                     style="fill:#16c5ac;fill-opacity:1;fill-rule:nonzero;stroke:none"
                     id="path3939" />
                </g>
                <g
                   transform="translate(21.783741,18.134766)"
                   id="g3941">
                  <path
                     inkscape:connector-curvature="0"
                     d="m 0,0 c -0.244,-0.001 -0.488,-0.006 -0.733,0 -0.095,0.001 -0.125,-0.02 -0.112,-0.12 0.082,-0.63 0.159,-1.259 0.238,-1.889 0.09,-0.723 0.185,-1.446 0.272,-2.169 0.01,-0.085 0.033,-0.114 0.122,-0.114 0.609,0.005 1.217,0.004 1.825,0.004 0.194,0 0.385,0.023 0.573,0.07 0.766,0.194 1.251,0.782 1.348,1.605 0.049,0.424 0.006,0.842 -0.041,1.261 C 3.46,-1.068 3.451,-0.782 3.376,-0.504 3.328,-0.32 3.248,-0.153 3.118,-0.012 2.078,-0.008 1.039,-0.004 0,0"
                     style="fill:#fdfdfd;fill-opacity:1;fill-rule:nonzero;stroke:none"
                     id="path3943" />
                </g>
              </g>
            </g>
          </g>
        </g>
      </g>
    </g>
  </g>
</svg>
